# xmcd
#
# Track frame offsets:
#	150
#	32147
#	45939
#	61561
#	101118
#	124115
#	135917
#	153249
#	170751
#	192923
#	214360
#	230402
#	269249
#
# Disc length: 4106
#
# Revision: 1
# Processed by: cddbd v1.5.1PL0 Copyright (c) Steve Scherf et al.
# Submitted via: ExactAudioCopy v0.95a5
# Normalized: r0:TDELIM( - )
#
DISCID=b510080d
DTITLE=Various Artist - Duane Allman:  The Sessions  [CD4]
DYEAR=2004
DGENRE=Southern Rock
TTITLE0=B.B. King Medley: Sweet Little Angel-It's My Own Fault-How Blue Can You Get - The Hour Glass
TTITLE1=Been Gone Too Long - The Hour Glass
TTITLE2=No Money Down - Duane Allman (solo)
TTITLE3=Goin' Down Slow - Duane Allman (solo)
TTITLE4=Goin' Upstairs - Sam Samudio
TTITLE5=Goin' Up The Country - The Duck and The Bear
TTITLE6=Please Be With Me - Cowboy
TTITLE7=Mean Old World - Eric Clapton
TTITLE8=Reap What You Sow - Otis Rush
TTITLE9=Steal Away - Duane Allman (solo) (February 1969)
TTITLE10=Trouble No More (demo) - The Allman Brothers Band (April 1969)
TTITLE11=Living Room Jam - Duane Allman (solo) (1971)
TTITLE12=Dreams (demo) - The Allman Brothers Band (April 1969)
EXTD=
EXTT0=
EXTT1=
EXTT2=
EXTT3=
EXTT4=
EXTT5=
EXTT6=
EXTT7=
EXTT8=
EXTT9=
EXTT10=
EXTT11=
EXTT12=
PLAYORDER=
